
<svg width="200px" height="30px" viewBox="0 0 200 30" version="1.1" xmlns="http://www.w3.org/2000/svg" xmlns:xlink="http://www.w3.org/1999/xlink">
    <g id="Page-1" stroke="none" stroke-width="1" fill="none" fill-rule="evenodd">
        <g id="logo" fill="#5d0eff" fill-rule="nonzero">
            <path d="M18.349,20.788 L6.516,20.788 C6.676,23.466 7.436,24.625 10.034,24.625 C11.633,24.625 12.592,24.185 12.872,22.746 L18.349,23.706 C17.309,27.184 14.831,29.262 9.834,29.262 C3.598,29.262 0,26.024 0,19.588 C0,14.391 2.319,9.474 9.554,9.474 C15.431,9.474 18.349,12.712 18.349,18.749 L18.349,20.788 L18.349,20.788 Z M9.314,13.912 C7.795,13.912 6.916,14.632 6.596,16.99 L11.793,16.99 L11.793,16.95 C11.793,14.751 10.953,13.912 9.314,13.912 Z M21.187,28.702 L21.187,24.345 C27.743,20.468 31.181,17.669 31.181,14.871 C31.181,13.631 30.621,12.872 29.582,12.872 C28.103,12.872 27.064,13.752 27.344,16.51 L21.187,15.23 C21.027,10.274 24.345,8.235 29.542,8.235 C34.139,8.235 37.817,10.034 37.817,14.431 C37.817,18.909 33.98,21.627 30.142,23.786 L38.657,23.786 L38.657,28.703 L21.187,28.703 L21.187,28.702 Z M59.644,20.788 L47.811,20.788 C47.971,23.466 48.731,24.625 51.329,24.625 C52.929,24.625 53.888,24.185 54.167,22.746 L59.644,23.706 C58.604,27.184 56.126,29.262 51.129,29.262 C44.893,29.262 41.295,26.024 41.295,19.588 C41.295,14.391 43.614,9.474 50.849,9.474 C56.726,9.474 59.644,12.712 59.644,18.749 L59.644,20.788 L59.644,20.788 Z M50.61,13.912 C49.09,13.912 48.211,14.632 47.891,16.99 L53.088,16.99 L53.088,16.95 C53.088,14.751 52.248,13.912 50.61,13.912 Z M80.392,20.788 L68.559,20.788 C68.719,23.466 69.479,24.625 72.077,24.625 C73.676,24.625 74.635,24.185 74.915,22.746 L80.392,23.706 C79.352,27.184 76.874,29.262 71.877,29.262 C65.641,29.262 62.043,26.024 62.043,19.588 C62.043,14.391 64.361,9.474 71.597,9.474 C77.473,9.474 80.392,12.712 80.392,18.749 L80.392,20.788 L80.392,20.788 Z M71.357,13.912 C69.838,13.912 68.959,14.632 68.639,16.99 L73.836,16.99 L73.836,16.95 C73.836,14.751 72.996,13.912 71.357,13.912 Z M100.459,16.875 C102.539,16.875 102.939,18.554 102.939,19.393 C102.939,20.633 101.699,21.352 100.859,21.472 C97.981,21.792 95.902,22.712 94.223,24.35 C94.223,24.35 97.142,16.875 100.46,16.875 L100.459,16.875 Z M87.148,18.953 C90.905,18.953 93.384,26.429 93.384,26.429 C91.744,24.35 89.666,23.551 87.148,23.551 C85.908,23.551 84.669,22.711 84.669,21.471 C84.669,20.193 85.509,18.953 87.148,18.953 L87.148,18.953 Z M94.143,12.997 C96.822,15.595 93.383,22.711 93.383,22.711 C93.663,20.073 92.744,17.994 90.945,16.275 C90.065,15.395 89.746,13.956 90.585,13.037 C91.465,12.157 92.945,11.837 94.143,12.997 Z M118.609,22.067 L124.405,23.226 C123.325,26.784 121.247,29.262 116.09,29.262 C109.614,29.262 106.736,25.625 106.736,19.308 C106.736,11.913 110.813,9.474 116.25,9.474 C121.367,9.474 124.725,11.913 124.285,16.15 L118.169,17.39 C118.529,14.871 117.289,14.112 116.17,14.112 C113.492,14.112 113.212,16.99 113.212,19.668 C113.212,22.986 114.012,24.625 116.17,24.625 C117.69,24.625 118.609,23.665 118.609,22.067 Z M127.364,28.703 L127.364,0 L133.6,0 L133.6,28.703 L127.364,28.703 Z M146.712,29.263 C139.156,29.263 136.878,24.585 136.878,19.228 C136.878,13.992 139.036,9.474 146.592,9.474 C154.307,9.474 156.346,14.152 156.346,19.308 C156.346,24.785 154.067,29.262 146.712,29.262 L146.712,29.263 Z M146.632,24.625 C149.35,24.625 149.87,22.107 149.87,19.388 C149.87,16.669 149.35,14.112 146.592,14.112 C143.874,14.112 143.354,16.67 143.354,19.308 C143.354,21.987 143.874,24.625 146.632,24.625 Z M177.453,10.034 L177.453,28.703 L171.817,28.703 L171.657,25.785 C171.137,26.904 169.578,29.262 165.461,29.262 C162.702,29.262 159.504,28.143 159.504,22.307 L159.504,10.034 L165.74,10.034 L165.74,20.708 C165.74,22.906 166.26,23.986 167.54,23.986 C169.698,23.986 170.857,20.348 171.217,18.989 L171.217,10.034 L177.453,10.034 L177.453,10.034 Z M194.723,28.703 L194.483,26.584 C193.563,27.904 192.125,29.262 189.006,29.262 C182.73,29.262 180.731,23.866 180.731,19.268 C180.731,13.432 183.93,9.474 189.446,9.474 C191.445,9.474 192.724,9.994 193.564,10.754 L193.564,0 L199.8,0 L199.8,28.703 L194.723,28.703 L194.723,28.703 Z M190.286,24.625 C192.524,24.625 193.564,22.946 193.564,19.109 C193.564,16.39 193.044,14.112 190.366,14.112 C188.167,14.112 187.208,15.671 187.208,19.468 C187.208,22.986 188.048,24.625 190.286,24.625 Z" id="Shape"></path>
        </g>
    </g>
</svg>